<mxfile host="app.diagrams.net" modified="2023-09-18T04:28:21.480Z" agent="Mozilla/5.0 (Macintosh; Intel Mac OS X 10_15_7) AppleWebKit/605.1.15 (KHTML, like Gecko) Version/16.5.1 Safari/605.1.15" etag="skb8Q1Tm4BaSUM4sqeG2" version="21.7.5" type="device">
  <diagram id="R2lEEEUBdFMjLlhIrx00" name="Page-1">
    <mxGraphModel dx="1363" dy="924" grid="1" gridSize="10" guides="1" tooltips="1" connect="1" arrows="1" fold="1" page="1" pageScale="1" pageWidth="850" pageHeight="1100" math="0" shadow="0" extFonts="Permanent Marker^https://fonts.googleapis.com/css?family=Permanent+Marker">
      <root>
        <mxCell id="0" />
        <mxCell id="1" parent="0" />
        <mxCell id="pWUu4n21JGwg7rA0w0O--8" value="" style="rounded=0;whiteSpace=wrap;html=1;" vertex="1" parent="1">
          <mxGeometry x="220" y="60" width="520" height="770" as="geometry" />
        </mxCell>
        <mxCell id="pWUu4n21JGwg7rA0w0O--14" value="" style="rounded=0;orthogonalLoop=1;jettySize=auto;html=1;" edge="1" parent="1" source="pWUu4n21JGwg7rA0w0O--9" target="pWUu4n21JGwg7rA0w0O--13">
          <mxGeometry relative="1" as="geometry" />
        </mxCell>
        <mxCell id="pWUu4n21JGwg7rA0w0O--16" value="" style="rounded=0;orthogonalLoop=1;jettySize=auto;html=1;" edge="1" parent="1" source="pWUu4n21JGwg7rA0w0O--9" target="pWUu4n21JGwg7rA0w0O--15">
          <mxGeometry relative="1" as="geometry" />
        </mxCell>
        <mxCell id="pWUu4n21JGwg7rA0w0O--9" value="User" style="shape=umlActor;verticalLabelPosition=bottom;verticalAlign=top;html=1;outlineConnect=0;" vertex="1" parent="1">
          <mxGeometry x="40" y="250" width="30" height="60" as="geometry" />
        </mxCell>
        <mxCell id="pWUu4n21JGwg7rA0w0O--44" style="rounded=0;orthogonalLoop=1;jettySize=auto;html=1;exitX=1;exitY=0.5;exitDx=0;exitDy=0;entryX=0;entryY=1;entryDx=0;entryDy=0;dashed=1;endArrow=classic;endFill=1;" edge="1" parent="1" source="pWUu4n21JGwg7rA0w0O--12" target="pWUu4n21JGwg7rA0w0O--22">
          <mxGeometry relative="1" as="geometry" />
        </mxCell>
        <mxCell id="pWUu4n21JGwg7rA0w0O--12" value="Login" style="ellipse;whiteSpace=wrap;html=1;" vertex="1" parent="1">
          <mxGeometry x="260" y="250" width="110" height="40" as="geometry" />
        </mxCell>
        <mxCell id="pWUu4n21JGwg7rA0w0O--23" style="rounded=0;orthogonalLoop=1;jettySize=auto;html=1;exitX=0.5;exitY=0.5;exitDx=0;exitDy=0;exitPerimeter=0;entryX=0;entryY=0.5;entryDx=0;entryDy=0;endArrow=none;endFill=0;" edge="1" parent="1" source="pWUu4n21JGwg7rA0w0O--13" target="pWUu4n21JGwg7rA0w0O--20">
          <mxGeometry relative="1" as="geometry" />
        </mxCell>
        <mxCell id="pWUu4n21JGwg7rA0w0O--26" style="rounded=0;orthogonalLoop=1;jettySize=auto;html=1;exitX=0.5;exitY=0.5;exitDx=0;exitDy=0;exitPerimeter=0;entryX=0;entryY=0.5;entryDx=0;entryDy=0;endArrow=none;endFill=0;" edge="1" parent="1" source="pWUu4n21JGwg7rA0w0O--13" target="pWUu4n21JGwg7rA0w0O--25">
          <mxGeometry relative="1" as="geometry" />
        </mxCell>
        <mxCell id="pWUu4n21JGwg7rA0w0O--27" style="rounded=0;orthogonalLoop=1;jettySize=auto;html=1;exitX=0.5;exitY=0.5;exitDx=0;exitDy=0;exitPerimeter=0;entryX=0;entryY=0.5;entryDx=0;entryDy=0;endArrow=none;endFill=0;" edge="1" parent="1" source="pWUu4n21JGwg7rA0w0O--13" target="pWUu4n21JGwg7rA0w0O--24">
          <mxGeometry relative="1" as="geometry" />
        </mxCell>
        <mxCell id="pWUu4n21JGwg7rA0w0O--31" style="rounded=0;orthogonalLoop=1;jettySize=auto;html=1;exitX=0.5;exitY=0.5;exitDx=0;exitDy=0;exitPerimeter=0;entryX=0;entryY=0.5;entryDx=0;entryDy=0;endArrow=none;endFill=0;" edge="1" parent="1" source="pWUu4n21JGwg7rA0w0O--13" target="pWUu4n21JGwg7rA0w0O--28">
          <mxGeometry relative="1" as="geometry" />
        </mxCell>
        <mxCell id="pWUu4n21JGwg7rA0w0O--13" value="Staff" style="shape=umlActor;verticalLabelPosition=bottom;verticalAlign=top;html=1;outlineConnect=0;" vertex="1" parent="1">
          <mxGeometry x="110" y="410" width="30" height="60" as="geometry" />
        </mxCell>
        <mxCell id="pWUu4n21JGwg7rA0w0O--18" style="rounded=0;orthogonalLoop=1;jettySize=auto;html=1;exitX=0.5;exitY=0.5;exitDx=0;exitDy=0;exitPerimeter=0;entryX=0;entryY=0.5;entryDx=0;entryDy=0;endArrow=none;endFill=0;" edge="1" parent="1" source="pWUu4n21JGwg7rA0w0O--9" target="pWUu4n21JGwg7rA0w0O--12">
          <mxGeometry relative="1" as="geometry" />
        </mxCell>
        <mxCell id="pWUu4n21JGwg7rA0w0O--46" style="rounded=0;orthogonalLoop=1;jettySize=auto;html=1;exitX=0.5;exitY=0.5;exitDx=0;exitDy=0;exitPerimeter=0;entryX=0;entryY=0.5;entryDx=0;entryDy=0;endArrow=none;endFill=0;" edge="1" parent="1" source="pWUu4n21JGwg7rA0w0O--15" target="pWUu4n21JGwg7rA0w0O--33">
          <mxGeometry relative="1" as="geometry" />
        </mxCell>
        <mxCell id="pWUu4n21JGwg7rA0w0O--15" value="Admin" style="shape=umlActor;verticalLabelPosition=bottom;verticalAlign=top;html=1;outlineConnect=0;" vertex="1" parent="1">
          <mxGeometry x="110" y="110" width="30" height="60" as="geometry" />
        </mxCell>
        <mxCell id="pWUu4n21JGwg7rA0w0O--20" value="Manage staff information" style="ellipse;whiteSpace=wrap;html=1;" vertex="1" parent="1">
          <mxGeometry x="280" y="430" width="110" height="40" as="geometry" />
        </mxCell>
        <mxCell id="pWUu4n21JGwg7rA0w0O--21" value="" style="ellipse;whiteSpace=wrap;html=1;" vertex="1" parent="1">
          <mxGeometry x="540" y="320" width="110" height="40" as="geometry" />
        </mxCell>
        <mxCell id="pWUu4n21JGwg7rA0w0O--22" value="Auothorization&lt;br&gt;user details" style="ellipse;whiteSpace=wrap;html=1;" vertex="1" parent="1">
          <mxGeometry x="500" y="130" width="110" height="40" as="geometry" />
        </mxCell>
        <mxCell id="pWUu4n21JGwg7rA0w0O--24" value="Manage Medicine" style="ellipse;whiteSpace=wrap;html=1;" vertex="1" parent="1">
          <mxGeometry x="270" y="360" width="110" height="40" as="geometry" />
        </mxCell>
        <mxCell id="pWUu4n21JGwg7rA0w0O--25" value="Manage Customer" style="ellipse;whiteSpace=wrap;html=1;" vertex="1" parent="1">
          <mxGeometry x="270" y="480" width="110" height="40" as="geometry" />
        </mxCell>
        <mxCell id="pWUu4n21JGwg7rA0w0O--28" value="Generate Rreport" style="ellipse;whiteSpace=wrap;html=1;" vertex="1" parent="1">
          <mxGeometry x="280" y="600" width="110" height="40" as="geometry" />
        </mxCell>
        <mxCell id="pWUu4n21JGwg7rA0w0O--30" style="rounded=0;orthogonalLoop=1;jettySize=auto;html=1;exitX=0;exitY=0.5;exitDx=0;exitDy=0;entryX=0.5;entryY=0.5;entryDx=0;entryDy=0;entryPerimeter=0;endArrow=none;endFill=0;" edge="1" parent="1" source="pWUu4n21JGwg7rA0w0O--29" target="pWUu4n21JGwg7rA0w0O--13">
          <mxGeometry relative="1" as="geometry" />
        </mxCell>
        <mxCell id="pWUu4n21JGwg7rA0w0O--29" value="Manage Financial" style="ellipse;whiteSpace=wrap;html=1;" vertex="1" parent="1">
          <mxGeometry x="287" y="540" width="110" height="40" as="geometry" />
        </mxCell>
        <mxCell id="pWUu4n21JGwg7rA0w0O--32" value="" style="ellipse;whiteSpace=wrap;html=1;" vertex="1" parent="1">
          <mxGeometry x="550" y="330" width="110" height="40" as="geometry" />
        </mxCell>
        <mxCell id="pWUu4n21JGwg7rA0w0O--33" value="Manage user" style="ellipse;whiteSpace=wrap;html=1;" vertex="1" parent="1">
          <mxGeometry x="270" y="110" width="110" height="40" as="geometry" />
        </mxCell>
        <mxCell id="pWUu4n21JGwg7rA0w0O--36" style="rounded=0;orthogonalLoop=1;jettySize=auto;html=1;exitX=0;exitY=0.5;exitDx=0;exitDy=0;entryX=0.5;entryY=0.5;entryDx=0;entryDy=0;entryPerimeter=0;endArrow=none;endFill=0;" edge="1" parent="1" source="pWUu4n21JGwg7rA0w0O--35" target="pWUu4n21JGwg7rA0w0O--13">
          <mxGeometry relative="1" as="geometry" />
        </mxCell>
        <mxCell id="pWUu4n21JGwg7rA0w0O--43" style="rounded=0;orthogonalLoop=1;jettySize=auto;html=1;exitX=1;exitY=0.5;exitDx=0;exitDy=0;entryX=0.07;entryY=0.4;entryDx=0;entryDy=0;entryPerimeter=0;endArrow=none;endFill=0;" edge="1" parent="1" source="pWUu4n21JGwg7rA0w0O--35" target="pWUu4n21JGwg7rA0w0O--39">
          <mxGeometry relative="1" as="geometry" />
        </mxCell>
        <mxCell id="pWUu4n21JGwg7rA0w0O--35" value="Formal Communication" style="ellipse;whiteSpace=wrap;html=1;" vertex="1" parent="1">
          <mxGeometry x="280" y="650" width="110" height="40" as="geometry" />
        </mxCell>
        <mxCell id="pWUu4n21JGwg7rA0w0O--38" value="Customer" style="shape=umlActor;verticalLabelPosition=bottom;verticalAlign=top;html=1;outlineConnect=0;" vertex="1" parent="1">
          <mxGeometry x="1030" y="420" width="30" height="60" as="geometry" />
        </mxCell>
        <mxCell id="pWUu4n21JGwg7rA0w0O--42" style="rounded=0;orthogonalLoop=1;jettySize=auto;html=1;exitX=0.875;exitY=0.5;exitDx=0;exitDy=0;exitPerimeter=0;entryX=0.5;entryY=0.5;entryDx=0;entryDy=0;entryPerimeter=0;endArrow=none;endFill=0;" edge="1" parent="1" source="pWUu4n21JGwg7rA0w0O--39" target="pWUu4n21JGwg7rA0w0O--38">
          <mxGeometry relative="1" as="geometry" />
        </mxCell>
        <mxCell id="pWUu4n21JGwg7rA0w0O--39" value="E mail Server" style="ellipse;shape=cloud;whiteSpace=wrap;html=1;" vertex="1" parent="1">
          <mxGeometry x="780" y="600" width="120" height="80" as="geometry" />
        </mxCell>
        <mxCell id="pWUu4n21JGwg7rA0w0O--45" value="&amp;lt;&amp;lt;include&amp;gt;&amp;gt;" style="text;html=1;strokeColor=none;fillColor=none;align=center;verticalAlign=middle;whiteSpace=wrap;rounded=0;rotation=-35;" vertex="1" parent="1">
          <mxGeometry x="397" y="203" width="60" height="30" as="geometry" />
        </mxCell>
        <mxCell id="pWUu4n21JGwg7rA0w0O--47" value="" style="ellipse;whiteSpace=wrap;html=1;" vertex="1" parent="1">
          <mxGeometry x="560" y="340" width="110" height="40" as="geometry" />
        </mxCell>
        <mxCell id="pWUu4n21JGwg7rA0w0O--56" style="rounded=0;orthogonalLoop=1;jettySize=auto;html=1;exitX=1;exitY=0.5;exitDx=0;exitDy=0;entryX=0.5;entryY=0.5;entryDx=0;entryDy=0;entryPerimeter=0;endArrow=none;endFill=0;" edge="1" parent="1" source="pWUu4n21JGwg7rA0w0O--48" target="pWUu4n21JGwg7rA0w0O--54">
          <mxGeometry relative="1" as="geometry" />
        </mxCell>
        <mxCell id="pWUu4n21JGwg7rA0w0O--48" value="Invoice" style="ellipse;whiteSpace=wrap;html=1;" vertex="1" parent="1">
          <mxGeometry x="540" y="710" width="110" height="40" as="geometry" />
        </mxCell>
        <mxCell id="pWUu4n21JGwg7rA0w0O--50" style="rounded=0;orthogonalLoop=1;jettySize=auto;html=1;exitX=0;exitY=0.5;exitDx=0;exitDy=0;entryX=0.5;entryY=0.5;entryDx=0;entryDy=0;entryPerimeter=0;endArrow=none;endFill=0;" edge="1" parent="1" source="pWUu4n21JGwg7rA0w0O--49" target="pWUu4n21JGwg7rA0w0O--13">
          <mxGeometry relative="1" as="geometry" />
        </mxCell>
        <mxCell id="pWUu4n21JGwg7rA0w0O--51" style="rounded=0;orthogonalLoop=1;jettySize=auto;html=1;exitX=1;exitY=0.5;exitDx=0;exitDy=0;entryX=0;entryY=0.5;entryDx=0;entryDy=0;endArrow=classic;endFill=1;dashed=1;" edge="1" parent="1" source="pWUu4n21JGwg7rA0w0O--49" target="pWUu4n21JGwg7rA0w0O--48">
          <mxGeometry relative="1" as="geometry" />
        </mxCell>
        <mxCell id="pWUu4n21JGwg7rA0w0O--49" value="Medicine Distribusion" style="ellipse;whiteSpace=wrap;html=1;" vertex="1" parent="1">
          <mxGeometry x="280" y="710" width="110" height="40" as="geometry" />
        </mxCell>
        <mxCell id="pWUu4n21JGwg7rA0w0O--52" value="&amp;lt;&amp;lt;include&amp;gt;&amp;gt;" style="text;html=1;strokeColor=none;fillColor=none;align=center;verticalAlign=middle;whiteSpace=wrap;rounded=0;rotation=0;" vertex="1" parent="1">
          <mxGeometry x="425" y="701" width="60" height="30" as="geometry" />
        </mxCell>
        <mxCell id="pWUu4n21JGwg7rA0w0O--57" style="rounded=0;orthogonalLoop=1;jettySize=auto;html=1;exitX=0.5;exitY=0;exitDx=0;exitDy=0;exitPerimeter=0;endArrow=none;endFill=0;" edge="1" parent="1" source="pWUu4n21JGwg7rA0w0O--54" target="pWUu4n21JGwg7rA0w0O--38">
          <mxGeometry relative="1" as="geometry" />
        </mxCell>
        <mxCell id="pWUu4n21JGwg7rA0w0O--54" value="delivery person" style="shape=umlActor;verticalLabelPosition=bottom;verticalAlign=top;html=1;outlineConnect=0;" vertex="1" parent="1">
          <mxGeometry x="960" y="731" width="30" height="60" as="geometry" />
        </mxCell>
      </root>
    </mxGraphModel>
  </diagram>
</mxfile>
